<svg height="290pt" preserveAspectRatio="xMidYMid meet" viewBox="0 0 290 290" width="290pt" xmlns="http://www.w3.org/2000/svg"><g transform="matrix(.1 0 0 -.1 0 290)"><path d="m2050 2886c-50-18-280-153-312-184-51-48-59-89-56-288 4-233 2-230 190-341 215-127 240-131 366-62 185 102 242 140 270 181 26 40 27 44 29 217 2 99-2 192-8 214-16 59-61 98-214 186-151 86-200 100-265 77z"/><path d="m825 2549c-49-28-110-62-135-76-140-79-152-105-152-339 0-251-4-245 247-389 112-65 124-70 180-70 57 0 68 4 200 79 160 91 210 135 222 198 5 24 8 117 7 208-2 233 4 225-254 373-154 88-185 90-315 16z"/><path d="m426 1753c-21-5-280-155-306-176-9-6-27-28-40-47-24-34-25-43-28-215-2-111 0-194 7-216 15-49 63-98 136-139 107-59 123-69 167-97 37-24 53-28 113-28 68 0 74 2 179 63 190 110 206 123 231 175 21 44 23 62 22 220 0 250 0 249-229 380-106 61-145 78-184 82-27 2-58 1-68-2z"/><path d="m1346 1725c-38-20-82-45-97-56-15-10-30-19-34-19-3 0-37-20-75-45-104-66-113-89-114-290-1-88 2-178 6-201 14-66 56-105 205-191 156-90 172-97 228-94 38 2 62 12 150 61 272 153 268 146 268 400 1 255 4 250-245 394-154 88-192 93-292 41z"/><path d="m2319 1729c-35-18-71-38-79-44-8-7-43-27-78-46-78-42-128-82-149-122-14-26-17-64-19-214-2-252 1-257 176-361 233-137 252-140 387-65 47 26 111 62 142 79 76 43 128 95 141 144 6 22 10 115 10 208-2 233-2 234-211 356-190 110-216 116-320 65z"/><path d="m780 855c-244-139-243-138-242-392 0-249-2-246 257-394 101-58 115-63 170-63 64-1 50-7 269 118 149 85 159 105 161 324 1 183-9 239-51 283-15 16-91 66-169 111-126 74-146 82-200 86-59 3-62 2-195-73z"/><path d="m1865 921c-11-5-71-38-133-75-62-36-116-66-121-66-16 0-83-80-95-114-9-25-12-94-11-215 2-241-3-234 239-372 123-70 133-74 190-74 58 1 68 5 206 85 221 129 220 127 221 374 1 152-2 180-19 218-25 57-33 63-206 162-135 78-154 86-200 85-28 0-60-4-71-8z"/></g></svg>